<svg width="45" height="38" viewBox="0 0 45 38" fill="none" xmlns="http://www.w3.org/2000/svg">
<path d="M44.2843 4.35446C43.2845 4.79782 42.2466 5.14759 41.1816 5.40081C42.3551 4.28567 43.2374 2.89087 43.7352 1.33402C43.8773 0.889566 43.3945 0.505236 42.9932 0.743207C41.5116 1.62202 39.9157 2.2813 38.2497 2.70293C38.153 2.7274 38.0533 2.73979 37.9532 2.73979C37.6497 2.73979 37.3547 2.62712 37.1227 2.42261C35.3501 0.860382 33.0704 0 30.7035 0C29.6793 0 28.6452 0.159635 27.6299 0.474516C24.4842 1.45021 22.057 4.04507 21.2955 7.24654C21.0098 8.44737 20.9324 9.64929 21.0654 10.8189C21.0806 10.9533 21.0171 11.0471 20.9779 11.0911C20.9092 11.1682 20.8116 11.2124 20.7104 11.2124C20.6991 11.2124 20.6874 11.2118 20.6759 11.2108C13.79 10.571 7.58059 7.25356 3.19145 1.86965C2.96763 1.59503 2.53843 1.62871 2.36003 1.93471C1.50053 3.40927 1.04631 5.09581 1.04631 6.81196C1.04631 9.44204 2.10297 11.9206 3.93839 13.7275C3.16655 13.5445 2.4195 13.2563 1.72555 12.8708C1.38983 12.6843 0.976751 12.9241 0.972033 13.3081C0.923978 17.2152 3.21153 20.6919 6.63836 22.2574C6.56934 22.259 6.50033 22.2598 6.43121 22.2598C5.88802 22.2598 5.33802 22.2073 4.79669 22.1039C4.41861 22.0317 4.10099 22.3903 4.21838 22.7569C5.33067 26.2295 8.32061 28.7891 11.8986 29.3703C8.92909 31.3637 5.47099 32.4152 1.8718 32.4152L0.749751 32.4145C0.404041 32.4145 0.111651 32.6399 0.0235502 32.9747C-0.063234 33.3045 0.0966202 33.6524 0.391423 33.8239C4.44713 36.1842 9.07325 37.4317 13.7717 37.4317C17.8843 37.4317 21.7314 36.6155 25.206 35.006C28.3914 33.5304 31.2062 31.4212 33.5723 28.7368C35.7765 26.2362 37.5001 23.3495 38.6951 20.157C39.8343 17.1138 40.4364 13.8667 40.4364 10.7666V10.619C40.4363 10.1212 40.6614 9.6528 41.0542 9.33397C42.5447 8.12382 43.8426 6.69929 44.9118 5.09998C45.1941 4.67768 44.7488 4.14842 44.2843 4.35446Z" fill="#76A9EA"/>
</svg>
