<svg width="45" height="45" viewBox="0 0 45 45" fill="none" xmlns="http://www.w3.org/2000/svg">
<path d="M31.5943 0H13.4057C6.01379 0 0 6.01379 0 13.4057V31.5943C0 38.9862 6.01379 45 13.4057 45H31.5943C38.9862 45 45 38.9862 45 31.5943V13.4057C44.9999 6.01379 38.9861 0 31.5943 0ZM40.473 31.5943C40.473 36.4978 36.4978 40.473 31.5943 40.473H13.4057C8.50219 40.473 4.527 36.4978 4.527 31.5943V13.4057C4.527 8.50211 8.50219 4.527 13.4057 4.527H31.5943C36.4978 4.527 40.473 8.50211 40.473 13.4057V31.5943Z" fill="url(#paint0_linear_0_341)"/>
<path d="M22.4999 10.8614C16.0824 10.8614 10.8613 16.0825 10.8613 22.4999C10.8613 28.9174 16.0824 34.1385 22.4999 34.1385C28.9175 34.1385 34.1385 28.9175 34.1385 22.4999C34.1385 16.0824 28.9175 10.8614 22.4999 10.8614ZM22.4999 29.6116C18.5723 29.6116 15.3883 26.4277 15.3883 22.5C15.3883 18.5723 18.5723 15.3884 22.4999 15.3884C26.4276 15.3884 29.6115 18.5723 29.6115 22.5C29.6115 26.4276 26.4275 29.6116 22.4999 29.6116Z" fill="url(#paint1_linear_0_341)"/>
<path d="M34.1608 13.7377C35.701 13.7377 36.9496 12.4891 36.9496 10.949C36.9496 9.40876 35.701 8.16019 34.1608 8.16019C32.6206 8.16019 31.3721 9.40876 31.3721 10.949C31.3721 12.4891 32.6206 13.7377 34.1608 13.7377Z" fill="url(#paint2_linear_0_341)"/>
<defs>
<linearGradient id="paint0_linear_0_341" x1="22.5" y1="44.8689" x2="22.5" y2="0.349506" gradientUnits="userSpaceOnUse">
<stop stop-color="#E09B3D"/>
<stop offset="0.3" stop-color="#C74C4D"/>
<stop offset="0.6" stop-color="#C21975"/>
<stop offset="1" stop-color="#7024C4"/>
</linearGradient>
<linearGradient id="paint1_linear_0_341" x1="22.4999" y1="44.8689" x2="22.4999" y2="0.349514" gradientUnits="userSpaceOnUse">
<stop stop-color="#E09B3D"/>
<stop offset="0.3" stop-color="#C74C4D"/>
<stop offset="0.6" stop-color="#C21975"/>
<stop offset="1" stop-color="#7024C4"/>
</linearGradient>
<linearGradient id="paint2_linear_0_341" x1="34.1608" y1="44.8689" x2="34.1608" y2="0.349519" gradientUnits="userSpaceOnUse">
<stop stop-color="#E09B3D"/>
<stop offset="0.3" stop-color="#C74C4D"/>
<stop offset="0.6" stop-color="#C21975"/>
<stop offset="1" stop-color="#7024C4"/>
</linearGradient>
</defs>
</svg>
