<svg width="45" height="45" viewBox="0 0 45 45" fill="none" xmlns="http://www.w3.org/2000/svg">
<path d="M38.9343 0H6.06362C2.71484 0 0 2.71473 0 6.06362V38.9345C0 42.2834 2.71473 44.9982 6.06362 44.9982H22.2753L22.3029 28.9183H18.1254C17.5825 28.9183 17.1418 28.4793 17.1397 27.9364L17.1197 22.7531C17.1176 22.2073 17.5596 21.7637 18.1054 21.7637H22.2754V16.7553C22.2754 10.9432 25.8251 7.77852 31.0098 7.77852H35.2643C35.8087 7.77852 36.2501 8.21982 36.2501 8.76426V13.1348C36.2501 13.679 35.809 14.1202 35.2649 14.1205L32.654 14.1217C29.8343 14.1217 29.2883 15.4616 29.2883 17.4279V21.7638H35.484C36.0744 21.7638 36.5324 22.2793 36.4629 22.8655L35.8485 28.0487C35.7897 28.5448 35.3691 28.9185 34.8697 28.9185H29.316L29.2883 44.9984H38.9345C42.2833 44.9984 44.998 42.2836 44.998 38.9349V6.06362C44.9979 2.71473 42.2832 0 38.9343 0Z" fill="#475993"/>
</svg>
