<svg width="58" height="66" viewBox="0 0 58 66" fill="none" xmlns="http://www.w3.org/2000/svg">
<path d="M44.0102 65.3843H13.2865C12.6446 65.3843 12.1098 64.9136 12.0242 64.2932L7.70231 35.2811C7.61673 34.7676 7.87347 34.2327 8.34417 33.9759L14.827 30.2745C15.2121 30.0606 15.7042 30.0606 16.0893 30.2745L22.08 33.6764L28.0707 30.2745C28.4558 30.0606 28.9479 30.0392 29.333 30.2745L30.7451 31.0662C30.7665 31.0876 30.7879 31.0876 30.8093 31.109L35.3237 33.6764L41.3144 30.2745C41.6995 30.0606 42.1916 30.0606 42.5767 30.2745L48.9739 33.9118C49.4446 34.1685 49.68 34.682 49.6158 35.2169L45.2939 64.2718C45.187 64.9136 44.6521 65.3843 44.0102 65.3843ZM14.3991 62.8169H42.8977L46.9414 35.709L41.9349 32.8634L35.9442 36.2652C35.5591 36.4792 35.067 36.4792 34.6818 36.2652L29.4614 33.2913C29.44 33.2913 29.4186 33.2699 29.3972 33.2485L28.6911 32.842L22.7005 36.2438C22.3153 36.4578 21.8232 36.4578 21.4381 36.2438L15.4474 32.842L10.3553 35.7518L14.3991 62.8169Z" fill="#232324"/>
<path d="M23.9842 65.3842C23.321 65.3842 22.7433 64.8707 22.7005 64.1861L20.7963 35.2382C20.7535 34.5321 21.2884 33.9116 21.9945 33.8689C22.7005 33.8261 23.321 34.3609 23.3638 35.067L25.2679 64.0149C25.3107 64.7209 24.7758 65.3414 24.0698 65.3842C24.0484 65.3842 24.0056 65.3842 23.9842 65.3842Z" fill="#232324"/>
<path d="M33.5052 65.3842C33.4838 65.3842 33.441 65.3842 33.4196 65.3842C32.7135 65.3414 32.1787 64.7209 32.2215 64.0149L34.0401 35.067C34.0828 34.3609 34.7033 33.8261 35.4094 33.8689C36.1154 33.9116 36.6503 34.5321 36.6075 35.2382L34.7889 64.1861C34.7247 64.8493 34.1684 65.3842 33.5052 65.3842Z" fill="#232324"/>
<path d="M48.0112 39.0465C47.4977 39.0465 47.027 38.747 46.813 38.2335C46.5563 37.5702 46.8772 36.8214 47.5405 36.5647C51.9051 34.8316 54.7293 31.0233 54.7293 26.894C54.7293 21.8447 50.5572 17.4586 44.8019 16.453C43.9888 16.3033 43.1544 16.2391 42.3414 16.2391C39.7953 16.2391 37.3563 16.9023 35.2809 18.1433C34.6819 18.507 33.8902 18.3144 33.5265 17.694C33.1628 17.0949 33.3553 16.3033 33.9758 15.9395C36.4577 14.4633 39.346 13.6716 42.3628 13.6716C43.347 13.6716 44.3312 13.7572 45.2726 13.9284C52.2474 15.1479 57.3181 20.6037 57.3181 26.894C57.3181 32.0716 53.8521 36.8214 48.5032 38.9395C48.3321 39.0251 48.1609 39.0465 48.0112 39.0465Z" fill="#232324"/>
<path d="M9.28558 39.0464C9.13581 39.0464 8.96465 39.025 8.81488 38.9608C3.46605 36.8212 0 32.0929 0 26.9152C0 20.625 5.0707 15.1692 12.0456 13.9496C13.0084 13.7785 13.9712 13.6929 14.9553 13.6929C17.8651 13.6929 20.6893 14.4203 23.107 15.811C23.7274 16.1533 23.9414 16.945 23.5777 17.5654C23.2353 18.1859 22.4437 18.3998 21.8233 18.0361C19.7907 16.8594 17.4158 16.2389 14.9553 16.2389C14.1209 16.2389 13.2865 16.3031 12.4735 16.4529C6.71814 17.4585 2.54605 21.8445 2.54605 26.8938C2.54605 31.0231 5.37023 34.8101 9.73488 36.5645C10.3981 36.8212 10.7191 37.5701 10.4623 38.2333C10.2912 38.7468 9.79907 39.0464 9.28558 39.0464Z" fill="#232324"/>
<path d="M12.281 16.4744C12.2382 16.4744 12.2168 16.4744 12.174 16.4744C11.4679 16.4102 10.933 15.7898 10.9972 15.0837C11.6605 6.61116 19.427 0 28.6484 0C37.8698 0 45.6363 6.63256 46.2996 15.0837C46.3637 15.7898 45.8289 16.4102 45.1228 16.4744C44.4168 16.5386 43.7963 16.0037 43.7321 15.2977C43.1758 8.15163 36.5433 2.56744 28.6484 2.56744C20.7535 2.56744 14.121 8.15163 13.5647 15.2977C13.5005 15.9823 12.9442 16.4744 12.281 16.4744Z" fill="#232324"/>
<path d="M11.6819 26.2734C11.3395 26.2734 11.0186 26.1451 10.7619 25.8883C10.2698 25.3748 10.2698 24.5618 10.7833 24.0697L13.3721 21.5237C13.8856 21.0316 14.6986 21.0316 15.1907 21.5451C15.6828 22.0585 15.6828 22.8716 15.1693 23.3637L12.5805 25.9097C12.3237 26.1451 12.0028 26.2734 11.6819 26.2734Z" fill="#FD8EB3"/>
<path d="M45.8288 26.5089C45.6149 26.5089 45.4009 26.4447 45.187 26.3377L42.0419 24.5191C41.4214 24.1554 41.2074 23.3851 41.5712 22.7647C41.9349 22.1442 42.7051 21.9302 43.3256 22.294L46.4707 24.1126C47.0912 24.4763 47.3051 25.2465 46.9414 25.867C46.706 26.2949 46.2781 26.5089 45.8288 26.5089Z" fill="#FD8EB3"/>
<path d="M28.4558 26.5304C28.2419 26.5304 28.0279 26.4662 27.814 26.3593C27.1935 25.9955 26.9795 25.2253 27.3433 24.6048L29.1619 21.4597C29.5256 20.8393 30.2958 20.6253 30.9163 20.989C31.5367 21.3528 31.7507 22.123 31.387 22.7435L29.5684 25.8886C29.333 26.3165 28.9051 26.5304 28.4558 26.5304Z" fill="#FD8EB3"/>
<path d="M31.7935 11.5535C31.5795 11.5535 31.3656 11.4893 31.1516 11.3824L28.0065 9.56376C27.386 9.20004 27.1721 8.42981 27.5358 7.80934C27.8995 7.18888 28.6698 6.97492 29.2902 7.33864L32.4354 9.15725C33.0558 9.52097 33.2698 10.2912 32.906 10.9117C32.6707 11.3182 32.2428 11.5535 31.7935 11.5535Z" fill="#FD8EB3"/>
</svg>
