<svg width="66" height="43" viewBox="0 0 66 43" fill="none" xmlns="http://www.w3.org/2000/svg">
<path d="M45.9084 37.7614H23.1553C22.5562 37.7614 22.0693 37.2745 22.0693 36.6754C22.0693 36.0763 22.5562 35.5894 23.1553 35.5894H44.8224V2.17196H7.37416V11.6435C7.37416 12.2426 6.88728 12.7295 6.28818 12.7295C5.68908 12.7295 5.20219 12.2426 5.20219 11.6435V1.08598C5.20219 0.486882 5.68908 0 6.28818 0H45.9102C46.5093 0 46.9962 0.486882 46.9962 1.08598V36.6754C46.9944 37.2763 46.5093 37.7614 45.9084 37.7614Z" fill="#232324"/>
<path d="M12.7625 37.7615H6.28822C5.68912 37.7615 5.20224 37.2746 5.20224 36.6755V24.2229C5.20224 23.6238 5.68912 23.137 6.28822 23.137C6.88732 23.137 7.3742 23.6238 7.3742 24.2229V35.5895H12.7643C13.3634 35.5895 13.8503 36.0764 13.8503 36.6755C13.8503 37.2746 13.3634 37.7615 12.7625 37.7615Z" fill="#232324"/>
<path d="M64.2471 37.7615H60.2869C59.6878 37.7615 59.2009 37.2746 59.2009 36.6755C59.2009 36.0764 59.6878 35.5895 60.2869 35.5895H63.1611V24.4781H46.9944V35.5895H49.8669C50.466 35.5895 50.9528 36.0764 50.9528 36.6755C50.9528 37.2746 50.466 37.7615 49.8669 37.7615H45.9193C45.3202 37.7615 44.8225 37.2746 44.8225 36.6755V23.3921C44.8225 22.793 45.3094 22.3062 45.9085 22.3062H64.2471C64.8462 22.3062 65.3331 22.793 65.3331 23.3921V36.6755C65.3331 37.2746 64.8462 37.7615 64.2471 37.7615Z" fill="#232324"/>
<path d="M64.2471 24.478H45.9085C45.3094 24.478 44.8225 23.9911 44.8225 23.392V9.12041C44.8225 8.52131 45.3094 8.03442 45.9085 8.03442H53.1465C56.276 8.03442 59.1484 9.86249 60.466 12.6933L65.2317 22.9323C65.3892 23.2689 65.362 23.6617 65.1629 23.9748C64.9638 24.2879 64.6181 24.478 64.2471 24.478ZM46.9944 22.306H62.5439L58.4968 13.6109C57.5339 11.5421 55.4343 10.2064 53.1465 10.2064H46.9944V22.306V22.306Z" fill="#232324"/>
<path d="M17.9589 42.9579C14.4946 42.9579 11.6765 40.1397 11.6765 36.6755C11.6765 33.2112 14.4946 30.3931 17.9589 30.3931C21.4232 30.3931 24.2413 33.2112 24.2413 36.6755C24.2413 40.1397 21.4232 42.9579 17.9589 42.9579ZM17.9589 32.565C15.6928 32.565 13.8485 34.4094 13.8485 36.6755C13.8485 38.9416 15.6928 40.7859 17.9589 40.7859C20.225 40.7859 22.0693 38.9416 22.0693 36.6755C22.0693 34.4094 20.225 32.565 17.9589 32.565Z" fill="#232324"/>
<path d="M55.1103 42.9579C51.6461 42.9579 48.8279 40.1397 48.8279 36.6755C48.8279 33.2112 51.6461 30.3931 55.1103 30.3931C58.5746 30.3931 61.3928 33.2112 61.3928 36.6755C61.3928 40.1397 58.5746 42.9579 55.1103 42.9579ZM55.1103 32.565C52.8443 32.565 50.9999 34.4094 50.9999 36.6755C50.9999 38.9416 52.8443 40.7859 55.1103 40.7859C57.3764 40.7859 59.2208 38.9416 59.2208 36.6755C59.2208 34.4094 57.3764 32.565 55.1103 32.565Z" fill="#232324"/>
<path d="M36.2667 19.0211H1.41936C0.820256 19.0211 0.333374 18.5342 0.333374 17.9351C0.333374 17.336 0.820256 16.8491 1.41936 16.8491H36.2667C36.8658 16.8491 37.3527 17.336 37.3527 17.9351C37.3527 18.5342 36.8658 19.0211 36.2667 19.0211Z" fill="#FD8EB3"/>
<path d="M29.5119 24.5686C29.1988 24.5686 28.8875 24.4328 28.6721 24.1722C28.292 23.7088 28.3589 23.0246 28.8223 22.6446L35.5753 17.097C36.0386 16.7169 36.7228 16.7839 37.1047 17.2472C37.4848 17.7106 37.4178 18.3947 36.9545 18.7748L30.2015 24.3224C29.9988 24.4889 29.7544 24.5686 29.5119 24.5686Z" fill="#FD8EB3"/>
<path d="M36.2649 19.0209C36.0224 19.0209 35.778 18.9395 35.5771 18.7748L28.8241 13.2272C28.3608 12.8471 28.2938 12.163 28.6739 11.6996C29.054 11.2363 29.7381 11.1693 30.2033 11.5494L36.9563 17.0969C37.4197 17.477 37.4866 18.1612 37.1065 18.6246C36.8911 18.887 36.5798 19.0209 36.2649 19.0209Z" fill="#FD8EB3"/>
</svg>
