<svg width="65" height="57" viewBox="0 0 65 57" fill="none" xmlns="http://www.w3.org/2000/svg">
<path d="M45.7672 18.6609C45.4001 18.6609 45.0432 18.4739 44.8426 18.1357L37.0771 5.06229L31.4378 8.77765C31.2287 8.91531 30.9891 8.9697 30.7562 8.95101L35.6392 17.0225C35.9468 17.5307 35.7837 18.1901 35.2755 18.4977C34.7673 18.8054 34.1079 18.6422 33.8002 18.134L24.3861 2.57236L9.10316 12.3927L11.7308 16.8236C12.0333 17.3335 11.865 17.9929 11.3551 18.2955C10.8453 18.598 10.1858 18.4297 9.88328 17.9199L6.7288 12.6001C6.43306 12.1021 6.58603 11.4613 7.07212 11.1486L24.1549 0.170805C24.3997 0.0144401 24.6971 -0.0382473 24.9775 0.0280376C25.2597 0.0926229 25.5044 0.271082 25.654 0.519226L29.8554 7.46554C29.9353 7.27519 30.0696 7.10693 30.2548 6.98455L36.834 2.65054C37.0788 2.48908 37.3796 2.43469 37.6652 2.50097C37.9507 2.56726 38.1971 2.74742 38.3484 2.99896L43.1073 11.0092C43.1804 10.9107 43.2739 10.824 43.3827 10.7543L50.2882 6.29621C50.5363 6.13645 50.8389 6.08546 51.1244 6.15514C51.4116 6.22483 51.6564 6.40838 51.8025 6.66503L57.6407 16.8406C57.9364 17.3556 57.758 18.0116 57.243 18.3074C56.728 18.6031 56.072 18.4246 55.7762 17.9097L50.5023 8.71476L44.5486 12.5593C44.416 12.6443 44.2716 12.697 44.1237 12.719L46.6884 17.0378C46.9909 17.5476 46.8227 18.2071 46.3128 18.5096C46.1428 18.6116 45.9542 18.6609 45.7672 18.6609Z" fill="#FD8EB3"/>
<path d="M18.5988 49.6617C18.1127 49.6617 17.6725 49.3303 17.5553 48.8357L13.1142 30.2096C12.9765 29.6318 13.3334 29.0539 13.9096 28.9162C14.4858 28.7769 15.0653 29.1355 15.203 29.7117L19.6441 48.3377C19.7818 48.9156 19.4248 49.4935 18.8487 49.6311C18.7637 49.6532 18.6804 49.6617 18.5988 49.6617ZM40.1941 49.643C40.1516 49.643 40.1074 49.6413 40.0649 49.6362C39.4752 49.5648 39.0554 49.0312 39.1268 48.4414L40.9827 32.9851C41.0541 32.397 41.5878 31.9772 42.1776 32.0469C42.7673 32.1183 43.1871 32.652 43.1158 33.2418L41.2598 48.698C41.1935 49.2419 40.7295 49.643 40.1941 49.643ZM32.8467 49.643C32.845 49.643 32.8433 49.643 32.8416 49.643C32.2484 49.6396 31.7691 49.1569 31.7725 48.5638L31.8405 35.1691C31.8439 34.5776 32.3232 34.1001 32.9147 34.1001C32.9164 34.1001 32.9181 34.1001 32.9198 34.1001C33.5129 34.1035 33.9922 34.5861 33.9888 35.1793L33.9208 48.574C33.9174 49.1654 33.4365 49.643 32.8467 49.643ZM47.154 49.6362C47.0725 49.6362 46.9892 49.6277 46.9059 49.6073C46.328 49.4714 45.9711 48.8918 46.1071 48.3156L50.504 29.6964C50.6399 29.1185 51.2195 28.7616 51.7957 28.8975C52.3735 29.0335 52.7305 29.6131 52.5945 30.1892L48.1976 48.8085C48.082 49.3031 47.6401 49.6362 47.154 49.6362ZM25.574 49.5155C25.0404 49.5155 24.5781 49.1178 24.5101 48.574L22.6269 33.5426C22.5538 32.9545 22.9702 32.4174 23.56 32.3427C24.1498 32.2696 24.6852 32.686 24.7599 33.2757L26.6431 48.3071C26.7162 48.8952 26.2998 49.4323 25.71 49.5071C25.6641 49.5138 25.6199 49.5155 25.574 49.5155Z" fill="#FD8EB3"/>
<path d="M32.8365 26.9023H32.8348C32.3572 26.9006 31.9544 26.5896 31.8151 26.1596C31.3409 26.0474 30.989 25.6225 30.989 25.1143C30.989 24.6231 31.3171 24.2101 31.7675 24.081L31.8185 1.35712C31.8202 0.763959 32.3011 0.284668 32.8926 0.284668H32.8943C33.4875 0.286368 33.9668 0.767358 33.9668 1.36222L33.9141 24.3087C34.135 24.5059 34.2744 24.7914 34.2744 25.1109C34.2744 25.4338 34.1316 25.7228 33.9073 25.9199C33.8614 26.4706 33.3991 26.9023 32.8365 26.9023Z" fill="#232324"/>
<path d="M61.7333 26.0951H3.26666C1.46507 26.0951 0 24.63 0 22.8284V19.9051C0 18.1035 1.46507 16.6384 3.26666 16.6384H61.7333C63.5349 16.6384 65 18.1035 65 19.9051V22.8284C65 24.63 63.5349 26.0951 61.7333 26.0951ZM3.26666 18.7867C2.6497 18.7867 2.14831 19.2881 2.14831 19.9051V22.8284C2.14831 23.4454 2.6497 23.9468 3.26666 23.9468H61.7333C62.3503 23.9468 62.8517 23.4454 62.8517 22.8284V19.9051C62.8517 19.2881 62.3503 18.7867 61.7333 18.7867H3.26666Z" fill="#232324"/>
<path d="M49.0645 56.117H16.2041C13.7057 56.117 11.1903 54.2424 10.4747 51.8493L2.60213 25.5104C2.43217 24.941 2.7551 24.3428 3.32447 24.1728C3.89384 24.0028 4.4921 24.3258 4.66206 24.8951L12.5347 51.2323C12.9783 52.7144 14.6592 53.967 16.2058 53.967H49.0645C50.6077 53.967 52.2716 52.7144 52.6982 51.2323L60.3363 24.7218C60.5011 24.1524 61.096 23.8227 61.6654 23.9875C62.2348 24.1524 62.5645 24.7473 62.3996 25.3166L54.7616 51.8272C54.0681 54.2322 51.5663 56.117 49.0645 56.117Z" fill="#232324"/>
<path d="M32.636 29.7746C34.2946 29.7746 35.6392 28.5228 35.6392 26.9787C35.6392 25.4346 34.2946 24.1829 32.636 24.1829C30.9773 24.1829 29.6328 25.4346 29.6328 26.9787C29.6328 28.5228 30.9773 29.7746 32.636 29.7746Z" fill="#232324"/>
</svg>
