<svg width="64" height="52" viewBox="0 0 64 52" fill="none" xmlns="http://www.w3.org/2000/svg">
<path d="M52.5485 51.8453C52.2496 51.8453 51.9488 51.8142 51.648 51.75L5.23532 41.8864C4.67593 41.7672 4.15322 41.5416 3.6782 41.2133C3.37558 41.0042 3.17934 40.6558 3.17934 40.2614C3.17934 39.6232 3.69654 39.106 4.33479 39.106C4.58973 39.106 4.82632 39.1885 5.01706 39.3297C5.23165 39.4746 5.46641 39.5737 5.71584 39.6269L52.1304 49.4923C52.6457 49.6023 53.1739 49.5033 53.616 49.2171C54.058 48.931 54.3606 48.489 54.4688 47.9755L59.4134 24.7123L55.2886 23.8356C54.665 23.7036 54.2652 23.0891 54.3991 22.4656C54.5311 21.842 55.1456 21.4422 55.7691 21.576L59.8939 22.4527L60.6331 18.9753L55.2886 17.8401C54.665 17.708 54.2652 17.0936 54.3991 16.47C54.5311 15.8464 55.1437 15.4466 55.7691 15.5805L61.1136 16.7158L61.3135 15.7804C61.5391 14.7185 60.8568 13.6694 59.7931 13.442L55.2886 12.4846C54.665 12.3526 54.2652 11.7382 54.3991 11.1146C54.5311 10.491 55.1456 10.0912 55.7691 10.2251L60.2736 11.1824C62.5827 11.674 64.0627 13.9519 63.5731 16.2609L63.1329 18.3243V18.3261C63.1329 18.3279 63.1329 18.3279 63.1329 18.3298L61.9151 24.0612V24.063V24.0649L56.7302 48.456C56.4936 49.5729 55.8352 50.5322 54.8759 51.1557C54.1698 51.6106 53.3684 51.8453 52.5485 51.8453ZM50.3843 44.7879C50.3036 44.7879 50.2229 44.7787 50.1441 44.7622L42.5511 43.1482C41.9293 43.0162 41.5295 42.4054 41.6597 41.7819L42.0137 40.0854C42.1439 39.46 42.7565 39.0601 43.3801 39.1903C44.0055 39.3206 44.4053 39.9331 44.2751 40.5567L44.1559 41.1271L49.4912 42.2606L49.9497 40.0835C50.0817 39.4599 50.6925 39.0601 51.3179 39.1903C51.9415 39.3224 52.3413 39.935 52.2111 40.5586L51.5141 43.869C51.4518 44.1698 51.2702 44.4321 51.0134 44.599C50.8245 44.7237 50.6063 44.7879 50.3843 44.7879ZM27.9813 34.6712H27.9776C27.3394 34.6712 26.8222 34.154 26.8222 33.5158C26.8222 32.8775 27.3394 32.3603 27.9776 32.3603C28.6159 32.3603 29.1349 32.8775 29.1349 33.5158C29.1349 34.154 28.6196 34.6712 27.9813 34.6712Z" fill="#FD8EB3"/>
<path d="M52.4018 41.4791H4.94921C2.58695 41.4791 0.666687 39.5588 0.666687 37.1965V4.28253C0.666687 1.92026 2.58695 0 4.94921 0H52.4018C54.7641 0 56.6843 1.92026 56.6843 4.28253V37.1965C56.6843 39.557 54.7623 41.4791 52.4018 41.4791ZM4.94921 2.31091C3.86162 2.31091 2.9776 3.19493 2.9776 4.28253V37.1965C2.9776 38.2841 3.86162 39.1682 4.94921 39.1682H52.4018C53.4894 39.1682 54.3734 38.2841 54.3734 37.1965V4.28253C54.3734 3.19493 53.4894 2.31091 52.4018 2.31091H4.94921ZM7.32799 34.6729C6.69157 34.6729 6.1762 34.1593 6.17253 33.5229C6.1707 32.8847 6.68423 32.3656 7.32249 32.362L12.368 32.34C12.3698 32.34 12.3717 32.34 12.3735 32.34C13.0099 32.34 13.5253 32.8535 13.5289 33.4899C13.5308 34.1282 13.0172 34.6472 12.379 34.6509L7.33349 34.6729C7.33166 34.6729 7.32982 34.6729 7.32799 34.6729ZM21.5273 34.66L16.6615 34.6527C16.0233 34.6527 15.5079 34.1337 15.5079 33.4954C15.5079 32.8572 16.0251 32.3418 16.6633 32.3418H16.6652L21.5291 32.3491C22.1674 32.3491 22.6846 32.8682 22.6827 33.5064C22.6827 34.1428 22.1655 34.66 21.5273 34.66ZM27.2275 34.6454C26.5911 34.6454 26.0757 34.1318 26.0721 33.4954C26.0702 32.8572 26.5838 32.3381 27.222 32.3345L32.2675 32.3124C32.2694 32.3124 32.2712 32.3124 32.273 32.3124C32.9094 32.3124 33.4248 32.826 33.4285 33.4624C33.4303 34.1007 32.9168 34.6197 32.2785 34.6234L27.233 34.6454C27.2312 34.6454 27.2294 34.6454 27.2275 34.6454ZM41.4268 34.6307L36.5611 34.6234C35.9228 34.6234 35.4074 34.1043 35.4074 33.4661C35.4074 32.8278 35.9246 32.3124 36.5629 32.3124H36.5647L41.4286 32.3198C42.0669 32.3198 42.5841 32.8388 42.5823 33.4771C42.5823 34.1153 42.0651 34.6307 41.4268 34.6307ZM32.0731 29.1634L27.2074 29.156C26.5691 29.156 26.0537 28.637 26.0537 27.9987C26.0537 27.3605 26.5709 26.8451 27.2092 26.8451H27.211L32.0749 26.8525C32.7132 26.8525 33.2304 27.3715 33.2286 28.0097C33.2286 28.648 32.7114 29.1634 32.0731 29.1634ZM7.32799 29.1432C6.69157 29.1432 6.1762 28.6297 6.17253 27.9932C6.1707 27.355 6.68423 26.8359 7.32249 26.8323L12.368 26.8103C12.3698 26.8103 12.3717 26.8103 12.3735 26.8103C13.0099 26.8103 13.5253 27.3238 13.5289 27.9602C13.5308 28.5985 13.0172 29.1175 12.379 29.1212L7.33349 29.1432C7.33166 29.1432 7.32982 29.1432 7.32799 29.1432ZM44.6181 7.2592C44.5245 7.2592 44.4273 7.2482 44.332 7.22252C43.7139 7.06479 43.3397 6.43938 43.4975 5.8213L43.4993 5.81397C43.657 5.19589 44.2879 4.82357 44.906 4.9813C45.5241 5.13903 45.8964 5.76811 45.7387 6.38803C45.6066 6.9089 45.1353 7.2592 44.6181 7.2592ZM48.9281 7.23536C48.8346 7.23536 48.7374 7.22436 48.642 7.19868C48.0239 7.04095 47.6498 6.41554 47.8075 5.79746L47.8093 5.79012C47.9671 5.17205 48.5961 4.79973 49.2161 4.95746C49.8341 5.11519 50.2065 5.74427 50.0487 6.36418C49.9167 6.88506 49.4453 7.23536 48.9281 7.23536ZM40.3997 7.22619C40.3062 7.22619 40.209 7.21519 40.1136 7.18951C39.4955 7.03178 39.1214 6.40637 39.2791 5.78829L39.281 5.78095C39.4387 5.16287 40.0678 4.79056 40.6877 4.94829C41.3058 5.10602 41.6781 5.7351 41.5203 6.35501C41.3883 6.87589 40.9169 7.22619 40.3997 7.22619ZM36.2731 7.21335C36.1796 7.21335 36.0824 7.20235 35.987 7.17667C35.3689 7.01894 34.9948 6.39353 35.1525 5.77545L35.1543 5.76811C35.3121 5.15004 35.943 4.77772 36.5611 4.93545C37.1791 5.09318 37.5514 5.72226 37.3937 6.34217C37.2617 6.86305 36.7903 7.21335 36.2731 7.21335Z" fill="#232324"/>
<path d="M15.9132 15.2391H8.14781C7.51139 15.2391 6.99418 14.7238 6.99235 14.0874L6.96117 6.12571C6.95934 5.81942 7.08039 5.52414 7.2968 5.30588C7.51322 5.08763 7.80667 4.96475 8.11479 4.96475L15.8949 4.94824H15.8967C16.203 4.94824 16.4946 5.06929 16.7129 5.28571C16.9293 5.50213 17.0522 5.79558 17.0522 6.10187L17.0668 14.08C17.0668 14.3863 16.9458 14.6816 16.7294 14.898C16.5129 15.1181 16.2195 15.2391 15.9132 15.2391ZM9.2996 12.9282H14.7541L14.7431 7.26466L9.27759 7.2775L9.2996 12.9282Z" fill="#FD8EB3"/>
</svg>
