<svg width="143" height="71" viewBox="0 0 143 71" fill="none" xmlns="http://www.w3.org/2000/svg">
<path d="M51.2907 9.94276C49.4549 8.89884 47.7384 8.40436 45.7188 7.7261C42.7102 6.71819 40.2719 6.33359 37.9586 5.99825C37.2463 5.95089 36.8124 5.82395 37.0568 4.69478C37.1572 4.22872 37.1572 4.14157 37.0568 3.6755C36.8086 2.52739 37.2652 2.40235 37.97 2.40235C41.295 2.40235 44.5574 3.99 47.7346 5.17222C52.0997 6.79587 56.3777 3.27385 60.7314 1.70136C65.8013 -0.130697 70.9773 -0.363729 76.2139 0.435781C78.9951 0.860167 81.7403 1.64831 84.3738 2.62212C88.9359 4.31398 90.5293 3.06545 94.2502 1.85671C97.4464 0.687759 100.697 0.0739155 104.019 0.0265522C104.767 0.0132904 105.131 0.299372 105.036 1.30539C105.021 1.47211 105.03 1.64262 105.036 1.80935C105.076 3.32501 105.176 3.03893 103.32 3.15071C97.6661 3.49552 94.7087 4.3746 88.8412 9.70404C86.545 11.79 83.9778 12.8585 80.0257 13.0518C78.6598 13.1181 76.9812 13.0158 75.6379 12.777C68.52 11.5153 61.8511 12.8869 55.7373 18.0477C53.9621 19.5464 52.2096 21.1833 50.1123 21.9449C47.9658 22.7236 45.859 22.644 43.7219 21.7441C41.905 20.9768 40.0085 20.5978 38.0837 20.6566C37.2406 20.685 36.9261 20.2303 36.945 19.158C36.9886 16.3426 36.7101 16.6136 38.9381 16.6325C40.8308 16.6495 42.6685 17.0512 44.4589 17.8393C47.1189 19.0121 49.5288 18.3187 51.8458 16.3748C54.809 13.8929 57.8251 11.4963 61.2202 10.1C66.4852 7.9364 71.8526 7.76399 77.2502 9.01441C79.3873 9.507 81.4656 10.0394 83.4701 8.46688C83.7694 8.23006 84.2525 8.06902 84.262 7.65411C84.2753 7.13121 83.7562 7.11415 83.436 6.94933C78.8454 4.57164 74.0427 3.86307 69.149 4.10936C62.8893 4.42386 57.0919 9.08262 51.861 13.5216C49.1574 15.814 46.2246 15.6435 43.1535 15.0088C41.456 14.4594 39.7452 14.2453 37.9927 14.2832C37.1894 14.3003 36.7972 14.0275 37.0776 12.9059C37.1136 12.7505 37.0928 13.048 37.0966 12.8793C37.1496 10.6684 37.1496 10.7157 38.8263 10.6987C40.9842 10.676 43.0285 11.4755 45.1618 11.7975C47.3765 12.131 50.37 11.3087 51.2907 9.94276Z" fill="#FD8EB3"/>
<path d="M90.9631 18.9113C92.799 19.9552 94.5155 20.4497 96.5351 21.1279C99.5437 22.1358 101.982 22.5204 104.295 22.8558C105.008 22.9031 105.441 23.0301 105.197 24.1592C105.097 24.6253 105.097 24.7124 105.197 25.1785C105.445 26.3266 104.989 26.4517 104.284 26.4517C100.959 26.4517 97.6965 24.864 94.5193 23.6818C90.1542 22.0563 85.8762 25.5802 81.5225 27.1527C76.4526 28.9847 71.2766 29.2177 66.04 28.4182C63.2588 27.9938 60.5135 27.2057 57.8801 26.2319C53.3179 24.54 51.7246 25.7886 48.0037 26.9973C44.8075 28.1663 41.5564 28.7801 38.2352 28.8275C37.4869 28.8407 37.1231 28.5546 37.2179 27.5486C37.233 27.3819 37.2235 27.2114 37.2179 27.0447C37.1781 25.529 37.0777 25.8151 38.9343 25.7033C44.5877 25.3585 47.2004 24.4302 53.066 19.1007C55.3622 17.0148 58.2779 15.9955 62.2281 15.8023C63.5941 15.736 65.2727 15.8383 66.616 16.077C73.7339 17.3388 80.4028 15.9671 86.5166 10.8063C88.2918 9.30766 90.0443 7.67075 92.1416 6.90913C94.2881 6.13046 96.3949 6.21003 98.532 7.10995C100.349 7.87726 102.245 8.25617 104.17 8.19744C105.013 8.16902 105.328 8.62372 105.309 9.69605C105.265 12.5114 105.544 12.2405 103.316 12.2215C101.423 12.2045 99.5854 11.8009 97.795 11.0147C95.135 9.84193 92.7251 10.5353 90.408 12.4792C87.4449 14.9611 84.4288 17.3577 81.0337 18.754C75.7687 20.9176 70.4013 21.09 65.0037 19.8396C62.8666 19.347 60.7883 18.8146 58.7838 20.3871C58.4845 20.624 58.0013 20.785 57.9919 21.1999C57.9786 21.7228 58.4977 21.7399 58.8179 21.9047C63.4085 24.2824 68.2112 24.9909 73.1049 24.7447C79.3646 24.4302 85.162 19.7733 90.3929 15.3324C93.0964 13.04 96.0292 13.2105 99.1003 13.8452C100.798 14.3946 102.509 14.6087 104.261 14.5708C105.064 14.5537 105.459 14.8285 105.178 15.9481C105.14 16.1016 105.161 15.8061 105.159 15.9747C105.104 18.1856 105.104 18.1383 103.428 18.1553C101.27 18.1781 99.2254 17.3785 97.0921 17.0565C94.8773 16.723 91.8839 17.5453 90.9631 18.9113Z" fill="#FD8EB3"/>
<path d="M7.07624 70.2623C8.27929 70.2623 9.22658 69.9421 9.9162 69.3017C10.6039 68.6595 10.9487 67.8353 10.9487 66.8274C10.9487 66.3992 10.8711 66.0014 10.7176 65.6319C10.5604 65.2644 10.2781 64.8798 9.87263 64.4819C9.4634 64.0841 8.90071 63.6483 8.18267 63.1709C7.46462 62.6953 6.54197 62.1383 5.41659 61.498C4.98841 61.246 4.49393 60.9391 3.93124 60.5791C3.36855 60.221 2.84376 59.7853 2.35874 59.2699C1.87373 58.7546 1.46072 58.1521 1.12159 57.4644C0.780565 56.7748 0.611947 55.9847 0.611947 55.0905C0.611947 54.3346 0.748357 53.6298 1.01928 52.98C1.2902 52.3301 1.7127 51.7617 2.28486 51.2767C2.85891 50.7917 3.59211 50.4128 4.48446 50.14C5.3768 49.8691 6.44534 49.7327 7.68818 49.7327C8.54264 49.7327 9.3573 49.8065 10.1341 49.9524C10.909 50.0964 11.6043 50.3257 12.2162 50.6364C12.8282 50.9471 13.3132 51.3487 13.6712 51.8432C14.0312 52.3396 14.2112 52.9459 14.2112 53.6639C14.2112 54.13 14.1316 54.5373 13.9782 54.8859C13.8228 55.2364 13.6239 55.5319 13.3814 55.7744C13.137 56.0188 12.8661 56.1969 12.5648 56.3144C12.2636 56.43 11.9586 56.4887 11.6478 56.4887C11.3959 56.4887 11.1193 56.4394 10.818 56.3428C10.5168 56.2462 10.2402 56.0852 9.9882 55.8616C9.73622 55.6399 9.52592 55.3425 9.36109 54.973C9.19626 54.6055 9.1148 54.1489 9.1148 53.6071C9.1148 52.6162 9.44445 51.722 10.1057 50.9262C10.1057 50.8694 10.0507 50.8201 9.94462 50.7804C9.83852 50.7425 9.69643 50.7046 9.52213 50.6648C9.34783 50.6269 9.15837 50.5966 8.95565 50.5776C8.75104 50.5587 8.56158 50.5473 8.38728 50.5473C7.41536 50.5473 6.61964 50.8239 5.99822 51.379C5.3768 51.9304 5.06799 52.6636 5.06799 53.5767C5.06799 54.1584 5.19682 54.6832 5.46016 55.1492C5.72161 55.6153 6.03801 56.0321 6.40745 56.4016C6.775 56.7691 7.17286 57.0855 7.60103 57.3469C8.02731 57.6103 8.39675 57.8282 8.70746 58.0025C9.71538 58.5652 10.6286 59.0994 11.4451 59.6053C12.2598 60.1092 12.9475 60.634 13.5121 61.1778C14.0748 61.7196 14.5105 62.3032 14.8213 62.9246C15.132 63.546 15.2892 64.2546 15.2892 65.0503C15.2892 66.0203 15.0638 66.8748 14.6185 67.6118C14.1714 68.3506 13.5841 68.9721 12.8566 69.476C12.1291 69.98 11.2992 70.3589 10.3671 70.6109C9.43498 70.8628 8.4839 70.9898 7.51199 70.9898C6.67837 70.9898 5.81824 70.8969 4.93537 70.7151C4.05249 70.5294 3.2473 70.249 2.51789 69.8701C1.79037 69.4912 1.18979 69.0194 0.714254 68.4567C0.238716 67.894 0 67.2328 0 66.4769C0 66.1472 0.0492588 65.8176 0.145882 65.4879C0.242505 65.1564 0.388388 64.8608 0.581634 64.5994C0.776775 64.336 1.01928 64.1238 1.31105 63.9571C1.60281 63.7923 1.94194 63.7108 2.33033 63.7108C2.6202 63.7108 2.92712 63.7639 3.2473 63.8719C3.56748 63.978 3.86683 64.1428 4.14912 64.3663C4.43141 64.5899 4.65876 64.876 4.83495 65.2246C5.00925 65.5732 5.09641 66.0014 5.09641 66.5053C5.09641 66.8937 5.02441 67.3314 4.87853 67.8164C4.73265 68.3014 4.48446 68.7182 4.13586 69.0687C4.05628 69.1464 4.01839 69.2146 4.01839 69.2714C4.01839 69.4078 4.11502 69.5347 4.31016 69.6503C4.5034 69.7678 4.74591 69.8701 5.03767 69.9553C5.32944 70.0425 5.65341 70.1164 6.01338 70.1751C6.37145 70.2319 6.72574 70.2623 7.07624 70.2623Z" fill="#232324"/>
<path d="M18.928 55.8478C19.7616 55.8478 20.4815 56.0506 21.0821 56.4598C21.6846 56.8671 22.1601 57.5378 22.5087 58.468L24.9849 65.1654L26.9951 60.8268L26.2656 58.9644C26.1103 58.576 25.9208 58.2937 25.6973 58.1194C25.4756 57.9451 25.2464 57.8561 25.0133 57.8561C24.7803 57.8561 24.534 57.9394 24.2707 58.1043C24.0092 58.2691 23.7421 58.4889 23.4693 58.7598C23.4693 58.3525 23.5772 57.9698 23.7913 57.6098C24.0054 57.2517 24.2953 56.9391 24.6647 56.6777C25.0323 56.4162 25.4548 56.2116 25.9303 56.0676C26.4058 55.9217 26.9155 55.8478 27.4611 55.8478C28.2947 55.8478 29.0128 56.0506 29.6153 56.4598C30.2158 56.8671 30.6933 57.5378 31.0419 58.468L33.5749 65.1654L37.2163 57.4203C37.2921 57.246 37.3319 57.0907 37.3319 56.9543C37.3319 56.8387 37.2731 56.7402 37.1557 56.6625C37.0401 56.5867 36.8999 56.5318 36.7351 56.5034C36.5702 56.473 36.394 56.4541 36.2103 56.4446C36.0246 56.4352 35.856 56.4295 35.7006 56.4295H35.4676V55.9937H40.1264V56.4295C39.467 56.4295 39.0142 56.4939 38.7717 56.6189C38.5292 56.7459 38.3113 57.0111 38.1181 57.4203L31.8869 70.6975H31.1574L27.4308 61.8176L23.3537 70.6975H22.6262L17.7344 58.9644C17.5771 58.576 17.3896 58.2937 17.166 58.1194C16.9424 57.9451 16.7151 57.8561 16.4821 57.8561C16.249 57.8561 16.0008 57.9394 15.7394 58.1043C15.476 58.2691 15.2108 58.4889 14.938 58.7598C14.938 58.3525 15.0441 57.9698 15.2582 57.6098C15.4723 57.2517 15.764 56.9391 16.1316 56.6777C16.501 56.4162 16.9235 56.2116 17.399 56.0676C17.8746 55.9217 18.3842 55.8478 18.928 55.8478Z" fill="#232324"/>
<path d="M47.8731 70.9901C46.5734 70.9901 45.412 70.7968 44.3928 70.4084C43.3735 70.02 42.5152 69.4763 41.8161 68.7772C41.117 68.0781 40.5885 67.2426 40.2285 66.2726C39.8685 65.3025 39.6904 64.234 39.6904 63.0688C39.6904 61.9056 39.8666 60.8617 40.2152 59.939C40.5638 59.0163 41.0829 58.232 41.7726 57.5803C42.4622 56.9304 43.3072 56.4302 44.3056 56.0798C45.3059 55.7311 46.4465 55.5568 47.7272 55.5568C48.2899 55.5568 48.9303 55.6288 49.6483 55.7747C50.3664 55.9206 51.0465 56.1593 51.6869 56.489C52.3291 56.8186 52.8672 57.2544 53.3029 57.7981C53.7406 58.3419 53.9585 59.0126 53.9585 59.8083C53.9585 60.4695 53.7993 61.036 53.4791 61.5115C53.159 61.987 52.7365 62.3811 52.2117 62.6899C51.6869 63.0025 51.0958 63.245 50.4365 63.4193C49.7752 63.5936 49.1008 63.7244 48.4112 63.8115C47.7234 63.8987 47.049 63.9536 46.3878 63.9725C45.7284 63.9915 45.1468 64.001 44.641 64.001C44.6599 65.2836 44.7243 66.3256 44.8304 67.1327C44.9365 67.9379 45.107 68.5593 45.3401 68.9951C45.5731 69.4327 45.8838 69.7283 46.2703 69.8836C46.6587 70.039 47.1247 70.1167 47.6704 70.1167C48.6783 70.1167 49.7222 69.9234 50.8002 69.5331C51.8763 69.1447 52.8047 68.5631 53.5796 67.7882C53.5796 68.1558 53.4583 68.529 53.2158 68.9079C52.9733 69.2868 52.6152 69.6316 52.1397 69.9424C51.6622 70.2531 51.0711 70.505 50.3626 70.6983C49.654 70.8934 48.8242 70.9901 47.8731 70.9901ZM44.641 63.2734C45.2226 63.2356 45.7853 63.1711 46.329 63.084C46.8728 62.9968 47.354 62.8263 47.7708 62.5744C48.1876 62.3224 48.5229 61.9624 48.7749 61.4963C49.0269 61.0303 49.1538 60.4107 49.1538 59.634C49.1538 59.2247 49.1159 58.8174 49.0383 58.4101C48.9606 58.0027 48.8393 57.6428 48.6745 57.334C48.5078 57.0214 48.2994 56.7694 48.0474 56.5761C47.7954 56.3829 47.4942 56.2844 47.1456 56.2844C46.7951 56.2844 46.4692 56.3961 46.1699 56.6197C45.8686 56.8414 45.6053 57.226 45.3836 57.7697C45.1601 58.3135 44.9801 59.0315 44.8437 59.9238C44.7092 60.8181 44.641 61.934 44.641 63.2734Z" fill="#232324"/>
<path d="M64.2093 70.9901C62.9078 70.9901 61.7483 70.7968 60.729 70.4084C59.7097 70.02 58.8515 69.4763 58.1524 68.7772C57.4533 68.0781 56.9228 67.2426 56.5647 66.2726C56.2048 65.3025 56.0267 64.234 56.0267 63.0688C56.0267 61.9056 56.2029 60.8617 56.5515 59.939C56.9001 59.0163 57.4192 58.232 58.1088 57.5803C58.7984 56.9304 59.6415 56.4302 60.6419 56.0798C61.6422 55.7311 62.7827 55.5568 64.0635 55.5568C64.6261 55.5568 65.2665 55.6288 65.9846 55.7747C66.7026 55.9206 67.3828 56.1593 68.0231 56.489C68.6654 56.8186 69.2034 57.2544 69.6392 57.7981C70.0768 58.3419 70.2947 59.0126 70.2947 59.8083C70.2947 60.4695 70.1356 61.036 69.8154 61.5115C69.4952 61.987 69.0727 62.3811 68.5479 62.6899C68.0231 63.0025 67.4301 63.245 66.7727 63.4193C66.1115 63.5936 65.437 63.7244 64.7474 63.8115C64.0597 63.8987 63.3833 63.9536 62.724 63.9725C62.0647 63.9915 61.4812 64.001 60.9772 64.001C60.9961 65.2836 61.0587 66.3256 61.1667 67.1327C61.2727 67.9379 61.4433 68.5593 61.6763 68.9951C61.9074 69.4327 62.22 69.7283 62.6065 69.8836C62.9949 70.039 63.461 70.1167 64.0066 70.1167C65.0145 70.1167 66.0584 69.9234 67.1346 69.5331C68.2126 69.1447 69.139 68.5631 69.9158 67.7882C69.9158 68.1558 69.7945 68.529 69.552 68.9079C69.3095 69.2868 68.9515 69.6316 68.4759 69.9424C67.9985 70.2531 67.4074 70.505 66.6988 70.6983C65.9902 70.8934 65.1604 70.9901 64.2093 70.9901ZM60.9772 63.2734C61.5588 63.2356 62.1215 63.1711 62.6653 63.084C63.209 62.9968 63.6902 62.8263 64.107 62.5744C64.5238 62.3224 64.8592 61.9624 65.1112 61.4963C65.3631 61.0303 65.4901 60.4107 65.4901 59.634C65.4901 59.2247 65.4522 58.8174 65.3726 58.4101C65.2968 58.0027 65.1756 57.6428 65.0107 57.334C64.844 57.0214 64.6356 56.7694 64.3836 56.5761C64.1317 56.3829 63.8304 56.2844 63.4818 56.2844C63.1313 56.2844 62.8055 56.3961 62.5061 56.6197C62.203 56.8414 61.9415 57.226 61.7199 57.7697C61.4963 58.3135 61.3163 59.0315 61.1799 59.9238C61.0454 60.8181 60.9772 61.934 60.9772 63.2734Z" fill="#232324"/>
<path d="M75.6825 50.0237C76.0899 50.0237 76.4972 50.0825 76.9064 50.198C77.3138 50.3155 77.6775 50.4955 77.9977 50.738C78.3179 50.9805 78.5756 51.2855 78.7688 51.655C78.9639 52.0225 79.0606 52.4507 79.0606 52.9357V55.9935H83.4276V56.7211H79.0606V66.768C79.0606 67.02 79.07 67.3345 79.0909 67.7134C79.1079 68.0923 79.1875 68.4561 79.3239 68.8066C79.4584 69.1552 79.6763 69.4564 79.9775 69.7084C80.2788 69.9622 80.7013 70.0873 81.245 70.0873C81.9441 70.0873 82.647 69.8751 83.3556 69.4469C84.0641 69.0206 84.7576 68.4655 85.4377 67.7873C85.4377 68.1567 85.3506 68.5281 85.1763 68.907C85.0001 69.2859 84.7102 69.6326 84.301 69.9414C83.8955 70.2521 83.3594 70.5041 82.7 70.6992C82.0407 70.8925 81.2261 70.9891 80.2541 70.9891C78.5073 70.9891 77.0959 70.6405 76.0179 69.9414C74.9399 69.2423 74.4018 68.1851 74.4018 66.768V56.7211H72.6531V55.9935H74.4018V52.9357C74.4018 52.5682 74.3317 52.3105 74.1972 52.1646C74.0608 52.0187 73.896 51.9448 73.7027 51.9448C73.4507 51.9448 73.1684 52.0396 72.8577 52.2215C72.547 52.4071 72.2363 52.6553 71.9256 52.9641C71.9256 52.5966 72.0279 52.2366 72.2306 51.888C72.4352 51.5375 72.7062 51.223 73.0472 50.9407C73.3882 50.6603 73.7842 50.4368 74.2408 50.2719C74.6974 50.1071 75.1767 50.0237 75.6825 50.0237Z" fill="#232324"/>
<path d="M97.7843 70.1164V70.5522H93.1255V70.1164C93.5916 70.1164 94.0027 70.0198 94.3627 69.8247C94.7208 69.6314 94.9405 69.4382 95.0182 69.243L102.938 50.0226H103.813L111.384 68.0779C111.48 68.3109 111.601 68.47 111.747 68.5591C111.893 68.6462 112.043 68.6898 112.198 68.6898C112.49 68.6898 112.795 68.5875 113.115 68.3848C113.435 68.1802 113.693 67.9812 113.888 67.7861C113.888 68.2143 113.78 68.6064 113.568 68.9664C113.354 69.3264 113.066 69.6314 112.708 69.8834C112.348 70.1373 111.937 70.3362 111.471 70.4802C111.005 70.6261 110.51 70.6981 109.985 70.6981C109.442 70.6981 108.966 70.6261 108.559 70.4802C108.151 70.3362 107.801 70.1373 107.511 69.8834C107.219 69.6314 106.971 69.3491 106.768 69.0384C106.564 68.7277 106.393 68.4075 106.259 68.0779L104.773 64.5843H97.8146L95.8916 69.243C95.8518 69.3586 95.8329 69.4476 95.8329 69.5045C95.8329 69.7773 96.0375 69.9478 96.4448 70.0141C96.8521 70.0842 97.2993 70.1164 97.7843 70.1164ZM98.1045 63.8549H104.482L101.278 56.197L98.1045 63.8549Z" fill="#232324"/>
<path d="M115.867 57.7697C115.615 57.7697 115.333 57.8625 115.022 58.0463C114.714 58.232 114.401 58.4782 114.092 58.789C114.092 58.4195 114.193 58.0614 114.397 57.7109C114.6 57.3623 114.873 57.0459 115.212 56.7656C115.551 56.4833 115.951 56.2597 116.405 56.0949C116.862 55.9319 117.343 55.8486 117.847 55.8486C118.546 55.8486 119.211 56.0229 119.842 56.3715C120.473 56.722 120.896 57.2354 121.108 57.9156C121.614 57.2752 122.216 56.775 122.913 56.4169C123.612 56.057 124.351 55.877 125.128 55.877C125.613 55.877 126.064 55.9509 126.481 56.0949C126.9 56.2408 127.263 56.4397 127.574 56.6917C127.885 56.9455 128.127 57.2411 128.302 57.5802C128.476 57.9193 128.563 58.285 128.563 58.6715C128.563 59.3138 128.339 59.848 127.894 60.2743C127.447 60.7006 126.884 60.9147 126.204 60.9147C125.816 60.9147 125.492 60.8427 125.23 60.6968C124.967 60.5509 124.753 60.3671 124.59 60.1436C124.423 59.92 124.306 59.6624 124.24 59.3725C124.171 59.0807 124.137 58.789 124.137 58.4972C124.137 58.1088 124.187 57.7375 124.283 57.3775C124.38 57.0175 124.486 56.7599 124.603 56.6064C124.332 56.6064 124.035 56.6822 123.715 56.8375C123.395 56.9929 123.074 57.1975 122.754 57.4495C122.434 57.7015 122.138 57.98 121.866 58.2793C121.593 58.5806 121.381 58.8761 121.225 59.1679V67.6423C121.225 68.0686 121.235 68.4418 121.254 68.762C121.275 69.0822 121.337 69.3398 121.443 69.535C121.549 69.7282 121.725 69.8741 121.968 69.9707C122.21 70.0674 122.546 70.1166 122.974 70.1166V70.5524H114.82V70.1166C115.265 70.1166 115.606 70.0674 115.837 69.9707C116.07 69.8741 116.241 69.7282 116.349 69.535C116.455 69.3398 116.517 69.0822 116.536 68.762C116.555 68.4418 116.567 68.0686 116.567 67.6423V58.7605C116.567 58.3911 116.498 58.1334 116.364 57.9894C116.226 57.8436 116.061 57.7697 115.867 57.7697Z" fill="#232324"/>
<path d="M133.194 50.0237C133.601 50.0237 134.008 50.0825 134.418 50.198C134.825 50.3155 135.189 50.4955 135.509 50.738C135.829 50.9805 136.087 51.2855 136.28 51.655C136.475 52.0225 136.572 52.4507 136.572 52.9357V55.9935H140.939V56.7211H136.572V66.768C136.572 67.02 136.581 67.3345 136.6 67.7134C136.621 68.0923 136.699 68.4561 136.835 68.8066C136.97 69.1552 137.187 69.4564 137.489 69.7084C137.79 69.9622 138.212 70.0873 138.756 70.0873C139.455 70.0873 140.158 69.8751 140.867 69.4469C141.575 69.0206 142.269 68.4655 142.949 67.7873C142.949 68.1567 142.862 68.5281 142.687 68.907C142.511 69.2859 142.221 69.6326 141.812 69.9414C141.407 70.2521 140.871 70.5041 140.211 70.6992C139.552 70.8925 138.737 70.9891 137.765 70.9891C136.019 70.9891 134.607 70.6405 133.529 69.9414C132.451 69.2423 131.913 68.1851 131.913 66.768V56.7211H130.164V55.9935H131.913V52.9357C131.913 52.5682 131.843 52.3105 131.708 52.1646C131.572 52.0187 131.407 51.9448 131.214 51.9448C130.962 51.9448 130.68 52.0396 130.369 52.2215C130.058 52.4071 129.747 52.6553 129.437 52.9641C129.437 52.5966 129.539 52.2366 129.742 51.888C129.946 51.5375 130.217 51.223 130.558 50.9407C130.899 50.6603 131.295 50.4368 131.752 50.2719C132.209 50.1071 132.688 50.0237 133.194 50.0237Z" fill="#232324"/>
</svg>
